<?xml version="1.0" ?><!DOCTYPE svg  PUBLIC '-//W3C//DTD SVG 1.1//EN'  'http://www.w3.org/Graphics/SVG/1.1/DTD/svg11.dtd'><svg enable-background="new 0 0 27.125 27.43" height="27.43px" id="Capa_1" version="1.1" viewBox="0 0 27.125 27.43" width="27.125px" xml:space="preserve" xmlns="http://www.w3.org/2000/svg" xmlns:xlink="http://www.w3.org/1999/xlink"><path d="M27.094,12.945c-1.511,0.013-3.021,0.021-4.531,0.034c0.254,2.6-0.603,5.287-2.594,7.275c-3.535,3.534-9.263,3.534-12.796,0  c-3.534-3.531-3.534-9.26,0-12.794c3.015-3.016,7.625-3.445,11.109-1.313c-1.181,1.167-2.57,2.549-2.57,2.549  c-1,1.062,0.017,1.766,0.69,1.77h8.828c0.338,0,0.61-0.273,0.611-0.611V1.099c0.041-0.825-0.865-1.592-1.756-0.7  c0,0-1.495,1.479-2.533,2.509C16.246-0.97,8.768-0.53,3.975,4.262c-5.3,5.3-5.3,13.893,0,19.192c5.299,5.298,13.892,5.298,19.191,0  C26.05,20.572,27.35,16.714,27.094,12.945z"/></svg>